# Blender v2.79 (sub 0) OBJ File: ''
# www.blender.org
mtllib untitled.mtl
o Mesh_0787
v 25.339300 283.227509 -31.815409
v 18.108500 290.458313 -31.815405
v 25.339300 307.828003 -31.815401
v 0.738800 283.227509 -31.815409
v 1.210400 308.236694 -27.728500
v 17.778400 324.867493 -31.815393
v 25.339300 332.428406 -31.815393
v 0.738800 332.428406 -31.815393
v -16.473700 325.056213 -31.815393
v -23.845900 332.428406 -31.815393
v -23.845900 307.828003 -31.815401
v -16.426500 290.631287 -31.815405
v -23.845900 283.227509 -31.815409
v 19.711800 243.033707 -31.815420
v 14.131500 248.613998 -31.815420
v 19.711800 262.006714 -31.815416
v 0.738800 243.033707 -31.815420
v 1.100300 262.321106 -27.728516
v 13.880000 275.147888 -31.815409
v 19.711800 280.979706 -31.815409
v 0.738800 280.979706 -31.815409
v -12.528200 275.305115 -31.815409
v -18.202801 280.979706 -31.815409
v -18.202801 262.006714 -31.815416
v -12.496700 248.755402 -31.815420
v -18.202801 243.033707 -31.815420
v 15.624800 210.888000 -31.815432
v 11.254900 215.257904 -31.815432
v 15.624800 225.774002 -31.815428
v 0.738800 210.888000 -31.815432
v 1.021700 226.025604 -27.728527
v 11.050600 236.085800 -31.815424
v 15.624800 240.660095 -31.815420
v 0.738800 240.660095 -31.815420
v -9.667300 236.195801 -31.815424
v -14.131500 240.660095 -31.815420
v -14.131500 225.774002 -31.815428
v -9.635800 215.367996 -31.815432
v -14.131500 210.888000 -31.815432
v -50.159801 306.256012 -11.003301
v -55.535702 311.993500 -10.264499
v -49.609600 325.229095 -11.003293
v -68.975601 306.806213 -8.488201
v -67.639503 326.077911 -5.407294
v -55.016998 338.543213 -10.232989
v -49.059399 344.202087 -11.003287
v -67.875298 344.752289 -8.488188
v -81.205101 339.454895 -6.727690
v -86.675400 345.302399 -5.973188
v -87.225502 326.329407 -5.973194
v -81.943901 312.905212 -6.727698
v -87.775703 307.356415 -5.973200
v -54.718300 272.790009 -10.531711
v -59.072498 277.427185 -9.934410
v -54.278198 288.147614 -10.531707
v -69.950203 273.230194 -8.488212
v -68.787003 288.823486 -5.391606
v -58.648102 298.915192 -9.902903
v -53.838100 303.505188 -10.531701
v -69.054199 303.945312 -8.488201
v -79.853203 299.653992 -7.057802
v -84.270302 304.385498 -6.444700
v -84.726196 289.027893 -6.444706
v -80.450600 278.165985 -7.057810
v -85.166298 273.670288 -6.444710
v 85.763603 304.762695 -5.407301
v 80.419098 310.500214 -6.303298
v 86.282402 323.735687 -5.234394
v 67.057899 305.312897 -8.614001
v 67.403702 324.584595 -5.281494
v 80.906403 337.049896 -6.114590
v 86.816803 342.708710 -5.077188
v 68.111000 343.258911 -8.283888
v 54.859798 337.961487 -10.594589
v 49.421001 343.809113 -11.506288
v 48.886501 324.836090 -11.663496
v 54.152500 311.411987 -10.814699
v 48.367802 305.863098 -11.836401
v 81.267998 271.296692 -6.303312
v 76.945198 275.933807 -7.026310
v 81.692398 286.654297 -6.177506
v 66.130402 271.736786 -8.912612
v 66.319099 287.330200 -5.611606
v 77.338203 297.421906 -6.884903
v 82.116798 302.011902 -6.036002
v 66.979301 302.451996 -8.645401
v 56.243099 298.160706 -10.500302
v 51.841702 302.892212 -11.239100
v 51.417301 287.534607 -11.380507
v 55.677200 276.672607 -10.688910
v 50.992901 272.177002 -11.506312
v 144.789001 163.636276 116.698944
v 143.185699 168.524872 112.423363
v 143.783005 179.669769 117.626465
v 140.356201 164.249268 101.231361
v 136.850906 180.345673 103.196259
v 141.708099 190.971863 113.523758
v 142.761307 195.703262 118.553864
v 138.328506 196.332077 103.101959
v 135.530396 191.962173 91.988464
v 133.895706 196.945068 87.634262
v 134.901703 180.911575 86.706863
v 136.960907 169.515167 90.715263
v 135.923401 164.878067 85.779465
v 145.747894 135.373169 112.108948
v 144.443207 139.334473 108.650749
v 144.930496 148.357269 112.863548
v 142.148193 135.876266 99.596542
v 138.815796 148.860275 101.325645
v 143.248596 157.490067 109.531044
v 144.097397 161.341263 113.618042
v 140.513397 161.828568 101.089844
v 138.234100 158.307465 92.098549
v 136.913696 162.331573 88.577446
v 137.746902 149.347565 87.822945
v 139.397400 140.136169 91.076744
v 138.564194 136.379272 87.068344
v 61.508999 132.370987 -281.812744
v 57.249100 136.646591 -281.812744
v 61.508999 146.895493 -281.812744
v 46.984501 132.370987 -281.812744
v 47.251701 147.146988 -279.392029
v 57.044800 156.955795 -281.812744
v 61.508999 161.435684 -281.812744
v 46.984501 161.435684 -281.812744
v 36.798500 157.081497 -281.812744
v 32.459999 161.435684 -281.812744
v 32.459999 146.895493 -281.812744
v 36.830002 136.740891 -281.812744
v 32.459999 132.370987 -281.812744
v 58.742401 106.654495 -281.812744
v 55.284199 110.112694 -281.812744
v 58.742401 118.412392 -281.812744
v 46.984501 106.654495 -281.812744
v 47.204601 118.616791 -279.392029
v 55.126999 126.554893 -281.812744
v 58.742401 130.170288 -281.812744
v 46.984501 130.170288 -281.812744
v 38.747700 126.649193 -281.812744
v 35.226601 130.170288 -281.812744
v 35.226601 118.412392 -281.812744
v 38.763401 110.191292 -281.812744
v 35.226601 106.654495 -281.812744
v -27.194099 132.370987 -281.812744
v -31.454000 136.646591 -281.812744
v -27.194099 146.895493 -281.812744
v -41.718601 132.370987 -281.812744
v -41.451401 147.146988 -279.392029
v -31.658400 156.955795 -281.812744
v -27.194099 161.435684 -281.812744
v -41.718601 161.435684 -281.812744
v -51.904598 157.081497 -281.812744
v -56.243099 161.435684 -281.812744
v -56.243099 146.895493 -281.812744
v -51.873199 136.740891 -281.812744
v -56.243099 132.370987 -281.812744
v -29.960699 106.654495 -281.812744
v -33.418900 110.112694 -281.812744
v -29.960699 118.412392 -281.812744
v -41.718601 106.654495 -281.812744
v -41.498501 118.616791 -279.392029
v -33.576099 126.554893 -281.812744
v -29.960699 130.170288 -281.812744
v -41.718601 130.170288 -281.812744
v -49.955399 126.649193 -281.812744
v -53.476501 130.170288 -281.812744
v -53.476501 118.412392 -281.812744
v -49.939701 110.191292 -281.812744
v -53.476501 106.654495 -281.812744
v -132.040802 164.186371 100.791260
v -132.968201 168.980774 105.349762
v -130.516006 180.204269 100.916962
v -136.725098 164.500763 116.180260
v -132.543793 180.550064 116.809059
v -130.908997 191.396271 105.742760
v -128.991302 196.222076 101.042763
v -133.675598 196.552170 116.431763
v -137.416702 191.977875 127.183662
v -138.359894 196.882172 131.836563
v -139.884598 180.848663 131.710754
v -139.538803 169.562363 126.979263
v -141.409393 164.830872 131.569260
v -135.640503 135.891968 103.494949
v -136.395004 139.774567 107.188843
v -134.398697 148.860275 103.589249
v -139.428802 136.143463 115.960144
v -135.561905 149.080276 116.604645
v -134.713104 157.914474 107.503242
v -133.172607 161.828568 103.699249
v -136.960907 162.095764 116.164543
v -139.979004 158.386063 124.857246
v -140.749207 162.347275 128.629761
v -141.990997 149.378967 128.519760
v -141.708099 140.246170 124.700043
v -143.217102 136.410675 128.409729
vt 0.537200 0.525400
vt 0.604400 0.594800
vt 0.768400 0.524600
vt 0.536800 0.762300
vt 0.772200 0.757900
vt 0.929300 0.597900
vt 0.999600 0.525400
vt 1.000000 0.762300
vt 0.931100 0.928600
vt 0.999500 0.999200
vt 0.768400 1.000000
vt 0.606100 0.928100
vt 0.537200 0.999200
vt 0.537200 0.525400
vt 0.604400 0.594800
vt 0.768400 0.524600
vt 0.536800 0.762300
vt 0.772200 0.757900
vt 0.929300 0.597900
vt 0.999600 0.525400
vt 1.000000 0.762300
vt 0.931100 0.928600
vt 0.999500 0.999200
vt 0.768400 1.000000
vt 0.606100 0.928100
vt 0.537200 0.999200
vt 0.537200 0.525400
vt 0.604400 0.594800
vt 0.768400 0.524600
vt 0.536800 0.762300
vt 0.772200 0.757900
vt 0.929300 0.597900
vt 0.999600 0.525400
vt 1.000000 0.762300
vt 0.931100 0.928600
vt 0.999500 0.999200
vt 0.768400 1.000000
vt 0.606100 0.928100
vt 0.537200 0.999200
vt 0.537200 0.525400
vt 0.604400 0.594800
vt 0.768400 0.524600
vt 0.536800 0.762300
vt 0.772200 0.757900
vt 0.929300 0.597900
vt 0.999600 0.525400
vt 1.000000 0.762300
vt 0.931100 0.928600
vt 0.999500 0.999200
vt 0.768400 1.000000
vt 0.606100 0.928100
vt 0.537200 0.999200
vt 0.537200 0.525400
vt 0.604400 0.594800
vt 0.768400 0.524600
vt 0.536800 0.762300
vt 0.772200 0.757900
vt 0.929300 0.597900
vt 0.999600 0.525400
vt 1.000000 0.762300
vt 0.931100 0.928600
vt 0.999500 0.999200
vt 0.768400 1.000000
vt 0.606100 0.928100
vt 0.537200 0.999200
vt 0.537200 0.525400
vt 0.604400 0.594800
vt 0.768400 0.524600
vt 0.536800 0.762300
vt 0.772200 0.757900
vt 0.929300 0.597900
vt 0.999600 0.525400
vt 1.000000 0.762300
vt 0.931100 0.928600
vt 0.999500 0.999200
vt 0.768400 1.000000
vt 0.606100 0.928100
vt 0.537200 0.999200
vt 0.537200 0.525400
vt 0.604400 0.594800
vt 0.768400 0.524600
vt 0.536800 0.762300
vt 0.772200 0.757900
vt 0.929300 0.597900
vt 0.999600 0.525400
vt 1.000000 0.762300
vt 0.931100 0.928600
vt 0.999500 0.999200
vt 0.768400 1.000000
vt 0.606100 0.928100
vt 0.537200 0.999200
vt 0.537200 0.525400
vt 0.604400 0.594800
vt 0.768400 0.524600
vt 0.536800 0.762300
vt 0.772200 0.757900
vt 0.929300 0.597900
vt 0.999600 0.525400
vt 1.000000 0.762300
vt 0.931100 0.928600
vt 0.999500 0.999200
vt 0.768400 1.000000
vt 0.606100 0.928100
vt 0.537200 0.999200
vt 0.537200 0.525400
vt 0.604400 0.594800
vt 0.768400 0.524600
vt 0.536800 0.762300
vt 0.772200 0.757900
vt 0.929300 0.597900
vt 0.999600 0.525400
vt 1.000000 0.762300
vt 0.931100 0.928600
vt 0.999500 0.999200
vt 0.768400 1.000000
vt 0.606100 0.928100
vt 0.537200 0.999200
vt 0.537200 0.525400
vt 0.604400 0.594800
vt 0.768400 0.524600
vt 0.536800 0.762300
vt 0.772200 0.757900
vt 0.929300 0.597900
vt 0.999600 0.525400
vt 1.000000 0.762300
vt 0.931100 0.928600
vt 0.999500 0.999200
vt 0.768400 1.000000
vt 0.606100 0.928100
vt 0.537200 0.999200
vt 0.537200 0.525400
vt 0.604400 0.594800
vt 0.768400 0.524600
vt 0.536800 0.762300
vt 0.772200 0.757900
vt 0.929300 0.597900
vt 0.999600 0.525400
vt 1.000000 0.762300
vt 0.931100 0.928600
vt 0.999500 0.999200
vt 0.768400 1.000000
vt 0.606100 0.928100
vt 0.537200 0.999200
vt 0.537200 0.525400
vt 0.604400 0.594800
vt 0.768400 0.524600
vt 0.536800 0.762300
vt 0.772200 0.757900
vt 0.929300 0.597900
vt 0.999600 0.525400
vt 1.000000 0.762300
vt 0.931100 0.928600
vt 0.999500 0.999200
vt 0.768400 1.000000
vt 0.606100 0.928100
vt 0.537200 0.999200
vt 0.537200 0.525400
vt 0.604400 0.594800
vt 0.768400 0.524600
vt 0.536800 0.762300
vt 0.772200 0.757900
vt 0.929300 0.597900
vt 0.999600 0.525400
vt 1.000000 0.762300
vt 0.931100 0.928600
vt 0.999500 0.999200
vt 0.768400 1.000000
vt 0.606100 0.928100
vt 0.537200 0.999200
vt 0.537200 0.525400
vt 0.604400 0.594800
vt 0.768400 0.524600
vt 0.536800 0.762300
vt 0.772200 0.757900
vt 0.929300 0.597900
vt 0.999600 0.525400
vt 1.000000 0.762300
vt 0.931100 0.928600
vt 0.999500 0.999200
vt 0.768400 1.000000
vt 0.606100 0.928100
vt 0.537200 0.999200
vt 0.537200 0.525400
vt 0.604400 0.594800
vt 0.768400 0.524600
vt 0.536800 0.762300
vt 0.772200 0.757900
vt 0.929300 0.597900
vt 0.999600 0.525400
vt 1.000000 0.762300
vt 0.931100 0.928600
vt 0.999500 0.999200
vt 0.768400 1.000000
vt 0.606100 0.928100
vt 0.537200 0.999200
vn -0.0000 0.0000 -1.0000
vn -0.0379 0.0158 -0.9992
vn -0.1243 -0.0008 -0.9922
vn -0.0035 -0.0035 -1.0000
vn -0.0675 0.1621 -0.9845
vn 0.0012 0.1376 -0.9905
vn -0.0399 -0.0177 -0.9990
vn -0.0002 -0.1234 -0.9924
vn -0.0743 -0.1675 -0.9831
vn 0.0648 -0.0642 -0.9958
vn 0.1373 0.0006 -0.9905
vn 0.0436 0.0436 -0.9981
vn -0.0563 0.0568 -0.9968
vn -0.1599 -0.0010 -0.9871
vn 0.0014 0.1551 -0.9879
vn -0.0043 -0.0044 -1.0000
vn -0.0601 -0.0601 -0.9964
vn -0.0003 -0.1589 -0.9873
vn 0.0834 -0.0827 -0.9931
vn 0.1770 0.0008 -0.9842
vn 0.0563 0.0563 -0.9968
vn -0.0710 0.0716 -0.9949
vn -0.2017 -0.0013 -0.9794
vn 0.0018 0.1957 -0.9807
vn -0.0053 -0.0056 -1.0000
vn -0.0759 -0.0759 -0.9942
vn -0.0003 -0.2003 -0.9797
vn 0.0728 -0.0721 -0.9947
vn 0.1946 0.0008 -0.9809
vn 0.0711 0.0711 -0.9949
vn -0.1323 0.0037 -0.9912
vn -0.1741 0.0491 -0.9835
vn -0.2544 0.0066 -0.9671
vn -0.1271 0.1244 -0.9841
vn -0.1360 0.0003 -0.9907
vn -0.1796 -0.0414 -0.9829
vn -0.1321 0.0041 -0.9912
vn -0.1353 -0.1196 -0.9836
vn -0.0696 -0.0622 -0.9956
vn -0.1325 0.0040 -0.9912
vn 0.0050 0.0003 -1.0000
vn -0.0875 0.0464 -0.9951
vn -0.1322 0.0041 -0.9912
vn -0.1326 0.0038 -0.9912
vn -0.1324 0.0033 -0.9912
vn -0.1840 0.0594 -0.9811
vn -0.2829 0.0074 -0.9591
vn -0.1261 0.1522 -0.9803
vn -0.1373 -0.0003 -0.9905
vn -0.1913 -0.0521 -0.9802
vn -0.1331 0.0037 -0.9911
vn -0.1361 -0.1482 -0.9796
vn -0.0797 -0.0521 -0.9955
vn -0.1332 0.0041 -0.9911
vn 0.0148 0.0001 -0.9999
vn -0.0776 0.0562 -0.9954
vn -0.1327 0.0041 -0.9911
vn 0.1695 0.0040 -0.9855
vn 0.1273 0.0492 -0.9906
vn 0.0460 0.0067 -0.9989
vn 0.1726 0.1241 -0.9771
vn 0.1661 0.0003 -0.9861
vn 0.1218 -0.0416 -0.9917
vn 0.1694 0.0037 -0.9855
vn 0.1647 -0.1194 -0.9791
vn 0.2120 -0.0417 -0.9764
vn 0.2863 0.0007 -0.9582
vn 0.2137 0.0465 -0.9758
vn 0.1700 0.0043 -0.9854
vn 0.1693 0.0041 -0.9856
vn 0.1175 0.0596 -0.9913
vn 0.0167 0.0069 -0.9998
vn 0.1733 0.1522 -0.9730
vn 0.1651 -0.0004 -0.9863
vn 0.1113 -0.0514 -0.9925
vn 0.1704 0.0048 -0.9854
vn 0.1627 -0.1480 -0.9755
vn 0.2215 -0.0520 -0.9738
vn 0.1695 0.0038 -0.9855
vn 0.3129 0.0005 -0.9498
vn 0.2230 0.0556 -0.9732
vn 0.1688 0.0033 -0.9856
vn 0.9592 0.0764 -0.2723
vn 0.9426 0.1216 -0.3110
vn 0.9176 0.0799 -0.3894
vn 0.9451 0.1954 -0.2618
vn 0.9585 0.0731 -0.2755
vn 0.9472 0.0318 -0.3192
vn 0.9591 0.0763 -0.2726
vn 0.9597 -0.0467 -0.2771
vn 0.9771 0.0101 -0.2126
vn 0.9592 0.0771 -0.2718
vn 0.9878 0.0712 -0.1386
vn 0.9666 0.1179 -0.2278
vn 0.9590 0.0760 -0.2730
vn 0.9590 0.0760 -0.2731
vn 0.9588 0.0770 -0.2735
vn 0.9378 0.1325 -0.3208
vn 0.9056 0.0804 -0.4164
vn 0.9397 0.2233 -0.2592
vn 0.9583 0.0721 -0.2766
vn 0.9439 0.0214 -0.3296
vn 0.9593 0.0770 -0.2718
vn 0.9575 -0.0763 -0.2783
vn 0.9749 0.0202 -0.2218
vn 0.9592 0.0766 -0.2721
vn 0.9894 0.0710 -0.1269
vn 0.9681 0.1276 -0.2158
vn 0.9595 0.0765 -0.2711
vn -0.0438 0.0441 -0.9981
vn -0.1246 -0.0008 -0.9922
vn 0.0010 0.1208 -0.9927
vn -0.0034 -0.0036 -1.0000
vn -0.0469 -0.0468 -0.9978
vn -0.0003 -0.1237 -0.9923
vn 0.0447 -0.0443 -0.9980
vn 0.1203 0.0006 -0.9927
vn 0.0437 0.0437 -0.9981
vn -0.0538 0.0543 -0.9971
vn -0.1530 -0.0010 -0.9882
vn 0.0012 0.1484 -0.9889
vn -0.0042 -0.0045 -1.0000
vn -0.0576 -0.0576 -0.9967
vn -0.0003 -0.1522 -0.9883
vn 0.0551 -0.0546 -0.9970
vn 0.1477 0.0006 -0.9890
vn 0.0537 0.0537 -0.9971
vn -0.9520 0.0931 -0.2915
vn -0.9587 0.1374 -0.2490
vn -0.9808 0.0936 -0.1709
vn -0.9333 0.2121 -0.2896
vn -0.9534 0.0892 -0.2883
vn -0.9678 0.0474 -0.2470
vn -0.9517 0.0935 -0.2923
vn -0.9566 -0.0305 -0.2900
vn -0.9414 0.0479 -0.3338
vn -0.9521 0.0931 -0.2912
vn -0.9103 0.0903 -0.4039
vn -0.9333 0.1355 -0.3325
vn -0.9519 0.0932 -0.2918
vn -0.9520 0.0927 -0.2918
vn -0.9597 0.1475 -0.2391
vn -0.9853 0.0942 -0.1427
vn -0.9273 0.2387 -0.2883
vn -0.9536 0.0889 -0.2876
vn -0.9711 0.0361 -0.2359
vn -0.9523 0.0921 -0.2909
vn -0.9555 -0.0589 -0.2889
vn -0.9383 0.0376 -0.3437
vn -0.9519 0.0929 -0.2919
vn -0.8987 0.0898 -0.4293
vn -0.9286 0.1445 -0.3418
vn -0.9520 0.0925 -0.2917
usemtl Tex_0017_0_dds
s 1
f 1/1/1 2/2/2 3/3/3
f 1/1/1 4/4/1 2/2/2
f 5/5/4 3/3/3 2/2/2
f 5/5/4 2/2/5 4/4/6
f 6/6/7 3/3/3 5/5/4
f 7/7/1 3/3/3 6/6/7
f 8/8/8 7/7/1 6/6/7
f 8/8/8 6/6/9 5/5/4
f 9/9/10 8/8/8 5/5/4
f 10/10/1 8/8/8 9/9/10
f 5/5/4 11/11/11 9/9/10
f 5/5/4 4/4/6 12/12/12
f 12/12/12 4/4/6 13/13/1
f 13/13/1 11/11/11 12/12/12
f 5/5/4 12/12/12 11/11/11
f 9/9/1 11/11/1 10/10/1
f 14/14/1 15/15/13 16/16/14
f 14/14/1 17/17/15 15/15/13
f 18/18/16 16/16/14 15/15/13
f 18/18/16 15/15/13 17/17/15
f 19/19/17 16/16/14 18/18/16
f 20/20/1 16/16/14 19/19/17
f 21/21/18 20/20/1 19/19/17
f 21/21/18 19/19/17 18/18/16
f 22/22/19 21/21/18 18/18/16
f 23/23/1 21/21/18 22/22/19
f 18/18/16 24/24/20 22/22/19
f 18/18/16 17/17/15 25/25/21
f 25/25/21 17/17/15 26/26/1
f 26/26/1 24/24/20 25/25/21
f 18/18/16 25/25/21 24/24/20
f 22/22/1 24/24/1 23/23/1
f 27/27/1 28/28/22 29/29/23
f 27/27/1 30/30/24 28/28/22
f 31/31/25 29/29/23 28/28/22
f 31/31/25 28/28/22 30/30/24
f 32/32/26 29/29/23 31/31/25
f 33/33/1 29/29/23 32/32/26
f 34/34/27 33/33/1 32/32/26
f 34/34/27 32/32/26 31/31/25
f 35/35/28 34/34/27 31/31/25
f 36/36/1 34/34/27 35/35/28
f 31/31/25 37/37/29 35/35/28
f 31/31/25 30/30/24 38/38/30
f 38/38/30 30/30/24 39/39/1
f 39/39/1 37/37/29 38/38/30
f 31/31/25 38/38/30 37/37/29
f 35/35/28 37/37/29 36/36/1
f 40/40/31 41/41/32 42/42/33
f 40/40/31 43/43/34 41/41/32
f 44/44/35 42/42/33 41/41/32
f 44/44/35 41/41/32 43/43/34
f 45/45/36 42/42/33 44/44/35
f 46/46/37 42/42/33 45/45/36
f 47/47/38 46/46/37 45/45/36
f 47/47/38 45/45/36 44/44/35
f 48/48/39 47/47/38 44/44/35
f 49/49/40 47/47/38 48/48/39
f 44/44/35 50/50/41 48/48/39
f 44/44/35 43/43/34 51/51/42
f 51/51/42 43/43/34 52/52/43
f 52/52/43 50/50/41 51/51/42
f 44/44/35 51/51/42 50/50/41
f 48/48/44 50/50/44 49/49/44
f 53/53/45 54/54/46 55/55/47
f 53/53/45 56/56/48 54/54/46
f 57/57/49 55/55/47 54/54/46
f 57/57/49 54/54/46 56/56/48
f 58/58/50 55/55/47 57/57/49
f 59/59/51 55/55/47 58/58/50
f 60/60/52 59/59/51 58/58/50
f 60/60/52 58/58/50 57/57/49
f 61/61/53 60/60/52 57/57/49
f 62/62/54 60/60/52 61/61/53
f 57/57/49 63/63/55 61/61/53
f 57/57/49 56/56/48 64/64/56
f 64/64/56 56/56/48 65/65/57
f 65/65/57 63/63/55 64/64/56
f 57/57/49 64/64/56 63/63/55
f 61/61/53 63/63/55 62/62/54
f 66/66/58 67/67/59 68/68/60
f 66/66/58 69/69/61 67/67/59
f 70/70/62 68/68/60 67/67/59
f 70/70/62 67/67/59 69/69/61
f 71/71/63 68/68/60 70/70/62
f 72/72/64 68/68/60 71/71/63
f 73/73/65 72/72/64 71/71/63
f 73/73/65 71/71/63 70/70/62
f 74/74/66 73/73/65 70/70/62
f 75/75/58 73/73/65 74/74/66
f 70/70/62 76/76/67 74/74/66
f 70/70/62 69/69/61 77/77/68
f 77/77/68 69/69/61 78/78/69
f 78/78/69 76/76/67 77/77/68
f 70/70/62 77/77/68 76/76/67
f 74/74/66 76/76/67 75/75/58
f 79/79/70 80/80/71 81/81/72
f 79/79/70 82/82/73 80/80/71
f 83/83/74 81/81/72 80/80/71
f 83/83/74 80/80/71 82/82/73
f 84/84/75 81/81/72 83/83/74
f 85/85/76 81/81/72 84/84/75
f 86/86/77 85/85/76 84/84/75
f 86/86/77 84/84/75 83/83/74
f 87/87/78 86/86/77 83/83/74
f 88/88/79 86/86/77 87/87/78
f 83/83/74 89/89/80 87/87/78
f 83/83/74 82/82/73 90/90/81
f 90/90/81 82/82/73 91/91/82
f 91/91/82 89/89/80 90/90/81
f 83/83/74 90/90/81 89/89/80
f 87/87/78 89/89/80 88/88/79
f 92/92/83 93/93/84 94/94/85
f 92/92/83 95/95/86 93/93/84
f 96/96/87 94/94/85 93/93/84
f 96/96/87 93/93/84 95/95/86
f 97/97/88 94/94/85 96/96/87
f 98/98/89 94/94/85 97/97/88
f 99/99/90 98/98/89 97/97/88
f 99/99/90 97/97/88 96/96/87
f 100/100/91 99/99/90 96/96/87
f 101/101/92 99/99/90 100/100/91
f 96/96/87 102/102/93 100/100/91
f 96/96/87 95/95/86 103/103/94
f 103/103/94 95/95/86 104/104/95
f 104/104/95 102/102/93 103/103/94
f 96/96/87 103/103/94 102/102/93
f 100/100/96 102/102/96 101/101/96
f 105/105/97 106/106/98 107/107/99
f 105/105/97 108/108/100 106/106/98
f 109/109/101 107/107/99 106/106/98
f 109/109/101 106/106/98 108/108/100
f 110/110/102 107/107/99 109/109/101
f 111/111/103 107/107/99 110/110/102
f 112/112/104 111/111/103 110/110/102
f 112/112/104 110/110/102 109/109/101
f 113/113/105 112/112/104 109/109/101
f 114/114/106 112/112/104 113/113/105
f 109/109/101 115/115/107 113/113/105
f 109/109/101 108/108/100 116/116/108
f 116/116/108 108/108/100 117/117/109
f 117/117/109 115/115/107 116/116/108
f 109/109/101 116/116/108 115/115/107
f 113/113/105 115/115/107 114/114/106
f 118/118/1 119/119/110 120/120/111
f 118/118/1 121/121/112 119/119/110
f 122/122/113 120/120/111 119/119/110
f 122/122/113 119/119/110 121/121/112
f 123/123/114 120/120/111 122/122/113
f 124/124/1 120/120/111 123/123/114
f 125/125/115 124/124/1 123/123/114
f 125/125/115 123/123/114 122/122/113
f 126/126/116 125/125/115 122/122/113
f 127/127/1 125/125/115 126/126/116
f 122/122/113 128/128/117 126/126/116
f 122/122/113 121/121/112 129/129/118
f 129/129/118 121/121/112 130/130/1
f 130/130/1 128/128/117 129/129/118
f 122/122/113 129/129/118 128/128/117
f 126/126/116 128/128/117 127/127/1
f 131/131/1 132/132/119 133/133/120
f 131/131/1 134/134/121 132/132/119
f 135/135/122 133/133/120 132/132/119
f 135/135/122 132/132/119 134/134/121
f 136/136/123 133/133/120 135/135/122
f 137/137/1 133/133/120 136/136/123
f 138/138/124 137/137/1 136/136/123
f 138/138/124 136/136/123 135/135/122
f 139/139/125 138/138/124 135/135/122
f 140/140/1 138/138/124 139/139/125
f 135/135/122 141/141/126 139/139/125
f 135/135/122 134/134/121 142/142/127
f 142/142/127 134/134/121 143/143/1
f 143/143/1 141/141/126 142/142/127
f 135/135/122 142/142/127 141/141/126
f 139/139/125 141/141/126 140/140/1
f 144/144/1 145/145/110 146/146/111
f 144/144/1 147/147/112 145/145/110
f 148/148/113 146/146/111 145/145/110
f 148/148/113 145/145/110 147/147/112
f 149/149/114 146/146/111 148/148/113
f 150/150/1 146/146/111 149/149/114
f 151/151/115 150/150/1 149/149/114
f 151/151/115 149/149/114 148/148/113
f 152/152/116 151/151/115 148/148/113
f 153/153/1 151/151/115 152/152/116
f 148/148/113 154/154/117 152/152/116
f 148/148/113 147/147/112 155/155/118
f 155/155/118 147/147/112 156/156/1
f 156/156/1 154/154/117 155/155/118
f 148/148/113 155/155/118 154/154/117
f 152/152/116 154/154/117 153/153/1
f 157/157/1 158/158/119 159/159/120
f 157/157/1 160/160/121 158/158/119
f 161/161/122 159/159/120 158/158/119
f 161/161/122 158/158/119 160/160/121
f 162/162/123 159/159/120 161/161/122
f 163/163/1 159/159/120 162/162/123
f 164/164/124 163/163/1 162/162/123
f 164/164/124 162/162/123 161/161/122
f 165/165/125 164/164/124 161/161/122
f 166/166/1 164/164/124 165/165/125
f 161/161/122 167/167/126 165/165/125
f 161/161/122 160/160/121 168/168/127
f 168/168/127 160/160/121 169/169/1
f 169/169/1 167/167/126 168/168/127
f 161/161/122 168/168/127 167/167/126
f 165/165/125 167/167/126 166/166/1
f 170/170/128 171/171/129 172/172/130
f 170/170/128 173/173/131 171/171/129
f 174/174/132 172/172/130 171/171/129
f 174/174/132 171/171/129 173/173/131
f 175/175/133 172/172/130 174/174/132
f 176/176/134 172/172/130 175/175/133
f 177/177/135 176/176/134 175/175/133
f 177/177/135 175/175/133 174/174/132
f 178/178/136 177/177/135 174/174/132
f 179/179/137 177/177/135 178/178/136
f 174/174/132 180/180/138 178/178/136
f 174/174/132 173/173/131 181/181/139
f 181/181/139 173/173/131 182/182/140
f 182/182/140 180/180/138 181/181/139
f 174/174/132 181/181/139 180/180/138
f 178/178/136 180/180/138 179/179/137
f 183/183/141 184/184/142 185/185/143
f 183/183/141 186/186/144 184/184/142
f 187/187/145 185/185/143 184/184/142
f 187/187/145 184/184/142 186/186/144
f 188/188/146 185/185/143 187/187/145
f 189/189/147 185/185/143 188/188/146
f 190/190/148 189/189/147 188/188/146
f 190/190/148 188/188/146 187/187/145
f 191/191/149 190/190/148 187/187/145
f 192/192/150 190/190/148 191/191/149
f 187/187/145 193/193/151 191/191/149
f 187/187/145 186/186/144 194/194/152
f 194/194/152 186/186/144 195/195/153
f 195/195/153 193/193/151 194/194/152
f 187/187/145 194/194/152 193/193/151
f 191/191/149 193/193/151 192/192/150
